<?xml version="1.0" encoding="UTF-8"?>
<svg id="Layer_1" xmlns="http://www.w3.org/2000/svg" xmlns:xlink="http://www.w3.org/1999/xlink" version="1.1" viewBox="0 0 453 81">
  <!-- Generator: Adobe Illustrator 29.5.1, SVG Export Plug-In . SVG Version: 2.1.0 Build 141)  -->
  <defs>
    <style>
      .st0 {
        fill: none;
      }

      .st1 {
        fill: #fff;
      }

      .st2 {
        clip-path: url(#clippath);
      }
    </style>
    <clipPath id="clippath">
      <rect class="st0" x="12" y="15" width="61.95" height="50"/>
    </clipPath>
  </defs>
  <g class="st2">
    <g>
      <path class="st1" d="M42.9,34.26l9.98,5.76,4.43-2.57-14.43-8.33-14.26,8.29,4.46,2.57,9.83-5.71h-.01Z"/>
      <path class="st1" d="M65.75,42.33l-4.43,2.57,3.74,2.16-.94.55-3.06,1.78-18.02,10.47-7.21-4.16-4.43,2.57,11.66,6.73,30.87-17.94-8.2-4.73h.02Z"/>
      <path class="st1" d="M24.87,49.36l-3.05-1.76-.94-.54,3.76-2.18-4.46-2.57-8.19,4.76,11.66,6.73,4.43-2.57-3.21-1.86h0Z"/>
      <path class="st1" d="M62.29,26.21l-4.43,2.57,7.21,4.16-.94.55-3.06,1.78-3.76,2.19-4.43,2.57-.94.55-3.06,1.78-5.84,3.39-5.99-3.46-3.05-1.76-.94-.54-4.46-2.57-3.74-2.16-3.05-1.76-.94-.54,22.02-12.8,7.21,4.16,4.43-2.57-11.66-6.73-30.87,17.94,12.19,7.03,4.46,2.57.94.54,3.05,1.76,10.44,6.03,10.26-5.96,3.06-1.78.94-.54,4.43-2.57,12.18-7.08-11.66-6.73v-.02Z"/>
    </g>
  </g>
  <path class="st1" d="M101.15,62.96c-1.84,0-3.6-.26-5.28-.78s-3.22-1.3-4.62-2.34-2.62-2.3-3.66-3.78c-1.04-1.52-1.86-3.28-2.46-5.28l7.62-3c.56,2.16,1.54,3.96,2.94,5.4,1.4,1.4,3.24,2.1,5.52,2.1.84,0,1.64-.1,2.4-.3.8-.24,1.5-.56,2.1-.96.64-.44,1.14-.98,1.5-1.62s.54-1.38.54-2.22-.14-1.52-.42-2.16-.76-1.24-1.44-1.8c-.64-.56-1.5-1.1-2.58-1.62-1.04-.52-2.34-1.06-3.9-1.62l-2.64-.96c-1.16-.4-2.34-.94-3.54-1.62-1.16-.68-2.22-1.5-3.18-2.46s-1.76-2.08-2.4-3.36c-.6-1.32-.9-2.8-.9-4.44s.32-3.24.96-4.68c.68-1.48,1.62-2.76,2.82-3.84,1.24-1.12,2.7-1.98,4.38-2.58,1.72-.64,3.62-.96,5.7-.96s4.02.3,5.58.9c1.6.56,2.94,1.3,4.02,2.22,1.12.88,2.02,1.86,2.7,2.94s1.18,2.1,1.5,3.06l-7.14,3c-.4-1.2-1.14-2.28-2.22-3.24-1.04-.96-2.48-1.44-4.32-1.44s-3.22.42-4.38,1.26c-1.16.8-1.74,1.86-1.74,3.18s.56,2.38,1.68,3.3c1.12.88,2.9,1.74,5.34,2.58l2.7.9c1.72.6,3.28,1.3,4.68,2.1,1.44.76,2.66,1.68,3.66,2.76,1.04,1.08,1.82,2.32,2.34,3.72.56,1.36.84,2.94.84,4.74,0,2.24-.46,4.18-1.38,5.82-.88,1.6-2.02,2.92-3.42,3.96s-2.98,1.82-4.74,2.34c-1.76.52-3.48.78-5.16.78h0ZM139.68,58.88h-.48c-.92,1.12-2.04,2.08-3.36,2.88-1.28.8-2.94,1.2-4.98,1.2-1.52,0-2.96-.26-4.32-.78-1.32-.48-2.48-1.16-3.48-2.04s-1.78-1.94-2.34-3.18-.84-2.6-.84-4.08.3-2.88.9-4.08c.6-1.24,1.44-2.3,2.52-3.18,1.08-.88,2.34-1.54,3.78-1.98,1.48-.48,3.08-.72,4.8-.72,1.92,0,3.5.16,4.74.48,1.24.28,2.26.58,3.06.9v-.9c0-1.56-.62-2.84-1.86-3.84-1.24-1.04-2.78-1.56-4.62-1.56-2.72,0-5.02,1.14-6.9,3.42l-5.7-3.9c3.12-3.92,7.38-5.88,12.78-5.88,4.56,0,8.04,1.08,10.44,3.24,2.4,2.12,3.6,5.28,3.6,9.48v17.64h-7.74v-3.12h0ZM139.68,50.06c-.92-.44-1.88-.78-2.88-1.02-.96-.28-2.02-.42-3.18-.42-1.88,0-3.34.42-4.38,1.26-1,.8-1.5,1.8-1.5,3s.48,2.16,1.44,2.88c1,.72,2.14,1.08,3.42,1.08,1.04,0,2-.18,2.88-.54.88-.4,1.62-.9,2.22-1.5.64-.64,1.12-1.36,1.44-2.16.36-.84.54-1.7.54-2.58ZM156.33,39.32h-5.16v-6.72h5.16v-9h7.86v9h7.2v6.72h-7.2v11.4c0,.68.06,1.32.18,1.92.16.56.44,1.04.84,1.44.56.64,1.36.96,2.4.96.68,0,1.22-.06,1.62-.18.4-.16.78-.36,1.14-.6l2.22,6.9c-.92.44-1.92.76-3,.96-1.04.24-2.2.36-3.48.36-1.48,0-2.82-.22-4.02-.66-1.16-.48-2.14-1.12-2.94-1.92-1.88-1.8-2.82-4.36-2.82-7.68v-12.9h0ZM189.4,62.96c-1.92,0-3.64-.24-5.16-.72-1.48-.48-2.78-1.1-3.9-1.86-1.08-.8-2-1.7-2.76-2.7-.76-1.04-1.34-2.08-1.74-3.12l7.02-3c.68,1.52,1.58,2.66,2.7,3.42,1.16.72,2.44,1.08,3.84,1.08s2.58-.26,3.42-.78,1.26-1.14,1.26-1.86c0-.8-.36-1.44-1.08-1.92-.68-.52-1.88-.98-3.6-1.38l-4.14-.9c-.92-.2-1.88-.52-2.88-.96-.96-.44-1.84-1-2.64-1.68s-1.46-1.5-1.98-2.46c-.52-.96-.78-2.08-.78-3.36,0-1.44.3-2.72.9-3.84.64-1.12,1.5-2.06,2.58-2.82,1.08-.8,2.34-1.4,3.78-1.8,1.48-.44,3.06-.66,4.74-.66,2.8,0,5.3.56,7.5,1.68,2.2,1.08,3.82,2.82,4.86,5.22l-6.78,2.76c-.56-1.16-1.38-2-2.46-2.52s-2.16-.78-3.24-.78-2.1.24-2.94.72c-.84.44-1.26,1.02-1.26,1.74,0,.68.34,1.22,1.02,1.62.72.4,1.68.76,2.88,1.08l4.5,1.08c3,.72,5.22,1.88,6.66,3.48,1.48,1.56,2.22,3.42,2.22,5.58,0,1.28-.3,2.5-.9,3.66-.6,1.16-1.46,2.2-2.58,3.12-1.08.88-2.4,1.58-3.96,2.1-1.52.52-3.22.78-5.1.78h0ZM227.62,62V26.72h-12v-7.68h32.1v7.68h-12v35.28h-8.1ZM275.55,54.92c-1.36,2.4-3.2,4.34-5.52,5.82-2.28,1.48-5.08,2.22-8.4,2.22-2.24,0-4.32-.38-6.24-1.14-1.88-.8-3.52-1.9-4.92-3.3-1.4-1.4-2.5-3.04-3.3-4.92-.76-1.92-1.14-4.02-1.14-6.3,0-2.12.38-4.12,1.14-6,.76-1.92,1.82-3.58,3.18-4.98,1.36-1.44,2.96-2.58,4.8-3.42,1.88-.84,3.94-1.26,6.18-1.26,2.36,0,4.46.4,6.3,1.2,1.84.76,3.38,1.84,4.62,3.24,1.24,1.36,2.18,2.98,2.82,4.86s.96,3.92.96,6.12v.72c-.04.24-.06.46-.06.66-.04.2-.06.42-.06.66h-22.14c.16,1.2.48,2.24.96,3.12.52.84,1.14,1.56,1.86,2.16.76.56,1.58.98,2.46,1.26.88.24,1.78.36,2.7.36,1.8,0,3.28-.4,4.44-1.2,1.2-.84,2.14-1.88,2.82-3.12,0,0,6.54,3.24,6.54,3.24ZM268.42,43.52c-.04-.52-.22-1.1-.54-1.74-.28-.64-.72-1.24-1.32-1.8-.56-.56-1.28-1.02-2.16-1.38-.84-.36-1.86-.54-3.06-.54-1.68,0-3.16.48-4.44,1.44s-2.18,2.3-2.7,4.02h14.22ZM281.05,32.6h7.38v4.08h.48c.36-.72.84-1.38,1.44-1.98s1.26-1.12,1.98-1.56c.76-.44,1.56-.78,2.4-1.02.88-.24,1.74-.36,2.58-.36,1.04,0,1.92.1,2.64.3.76.2,1.4.46,1.92.78l-2.1,7.14c-.48-.24-1.02-.42-1.62-.54-.56-.16-1.26-.24-2.1-.24-1.08,0-2.06.22-2.94.66-.88.4-1.64.98-2.28,1.74-.6.76-1.08,1.66-1.44,2.7-.32,1-.48,2.1-.48,3.3v14.4h-7.86v-29.4h0ZM305.49,32.6h7.38v3.84h.48c.92-1.44,2.16-2.6,3.72-3.48,1.6-.88,3.36-1.32,5.28-1.32,2.24,0,4.12.52,5.64,1.56,1.52,1.04,2.6,2.32,3.24,3.84.92-1.48,2.22-2.74,3.9-3.78,1.68-1.08,3.72-1.62,6.12-1.62,1.8,0,3.36.3,4.68.9,1.32.56,2.4,1.36,3.24,2.4.88,1.04,1.54,2.3,1.98,3.78.44,1.44.66,3.02.66,4.74v18.54h-7.86v-17.1c0-4-1.64-6-4.92-6-1.04,0-1.96.24-2.76.72-.8.44-1.48,1.06-2.04,1.86-.52.76-.94,1.68-1.26,2.76-.28,1.08-.42,2.24-.42,3.48v14.28h-7.86v-17.1c0-4-1.72-6-5.16-6-1,0-1.88.24-2.64.72-.76.44-1.4,1.06-1.92,1.86-.52.76-.92,1.68-1.2,2.76-.28,1.08-.42,2.24-.42,3.48v14.28h-7.86v-29.4h0ZM362.66,28.34c-.68,0-1.34-.12-1.98-.36-.6-.28-1.14-.64-1.62-1.08-.44-.48-.8-1.02-1.08-1.62-.24-.6-.36-1.26-.36-1.98s.12-1.38.36-1.98c.28-.6.64-1.12,1.08-1.56.48-.48,1.02-.84,1.62-1.08.64-.28,1.3-.42,1.98-.42,1.4,0,2.6.5,3.6,1.5,1,.96,1.5,2.14,1.5,3.54s-.5,2.6-1.5,3.6c-1,.96-2.2,1.44-3.6,1.44ZM358.76,62v-29.4h7.86v29.4h-7.86ZM381.19,36.44h.48c.92-1.48,2.16-2.64,3.72-3.48,1.56-.88,3.34-1.32,5.34-1.32,1.84,0,3.46.3,4.86.9,1.4.6,2.54,1.46,3.42,2.58.92,1.08,1.6,2.4,2.04,3.96.48,1.52.72,3.22.72,5.1v17.82h-7.86v-16.86c0-2.12-.48-3.68-1.44-4.68-.92-1.04-2.28-1.56-4.08-1.56-1.08,0-2.04.24-2.88.72-.8.44-1.5,1.06-2.1,1.86-.56.76-1,1.68-1.32,2.76-.28,1.04-.42,2.16-.42,3.36v14.4h-7.86v-29.4h7.38v3.84h0ZM426.09,58.88h-.48c-.92,1.12-2.04,2.08-3.36,2.88-1.28.8-2.94,1.2-4.98,1.2-1.52,0-2.96-.26-4.32-.78-1.32-.48-2.48-1.16-3.48-2.04s-1.78-1.94-2.34-3.18-.84-2.6-.84-4.08.3-2.88.9-4.08c.6-1.24,1.44-2.3,2.52-3.18s2.34-1.54,3.78-1.98c1.48-.48,3.08-.72,4.8-.72,1.92,0,3.5.16,4.74.48,1.24.28,2.26.58,3.06.9v-.9c0-1.56-.62-2.84-1.86-3.84-1.24-1.04-2.78-1.56-4.62-1.56-2.72,0-5.02,1.14-6.9,3.42l-5.7-3.9c3.12-3.92,7.38-5.88,12.78-5.88,4.56,0,8.04,1.08,10.44,3.24,2.4,2.12,3.6,5.28,3.6,9.48v17.64h-7.74v-3.12h0ZM426.09,50.06c-.92-.44-1.88-.78-2.88-1.02-.96-.28-2.02-.42-3.18-.42-1.88,0-3.34.42-4.38,1.26-1,.8-1.5,1.8-1.5,3s.48,2.16,1.44,2.88c1,.72,2.14,1.08,3.42,1.08,1.04,0,2-.18,2.88-.54.88-.4,1.62-.9,2.22-1.5.64-.64,1.12-1.36,1.44-2.16.36-.84.54-1.7.54-2.58h0ZM440.08,62V19.04h7.86v42.96h-7.86Z"/>
</svg>