<?xml version="1.0" encoding="utf-8"?>
<!-- Generator: Adobe Illustrator 28.2.0, SVG Export Plug-In . SVG Version: 6.00 Build 0)  -->
<svg version="1.1" id="Layer_1" xmlns="http://www.w3.org/2000/svg" xmlns:xlink="http://www.w3.org/1999/xlink" x="0px" y="0px"
	 viewBox="0 0 453 81" style="enable-background:new 0 0 453 81;" xml:space="preserve">
<style type="text/css">
	.st0{fill:none;}
	.st1{fill:#FFFFFF;}
</style>
<rect class="st0" width="453" height="81"/>
<script  data-extension-id="mkpegjkblkkefacfnmkajcjmabijhclg" data-prioritize-magic-eden="false" id="magic-eden-extension" xmlns="">
	</script>
<g>
	<g>
		<g>
			<path class="st1" d="M42.9,34.3l10,5.8l4.4-2.6l-14.4-8.3l-14.3,8.3l4.5,2.6L42.9,34.3z"/>
			<path class="st1" d="M65.8,42.3l-4.4,2.6l3.7,2.2l-0.9,0.5l-3.1,1.8L43,59.9l-7.2-4.2l-4.4,2.6L43.1,65L74,47.1L65.8,42.3z"/>
			<path class="st1" d="M24.9,49.4l-3.1-1.8l-0.9-0.5l3.8-2.2l-4.5-2.6L12,47.1l11.7,6.7l4.4-2.6L24.9,49.4z"/>
			<path class="st1" d="M62.3,26.2l-4.4,2.6l7.2,4.2l-0.9,0.5l-3.1,1.8l-3.8,2.2L52.9,40L52,40.5l-3.1,1.8L43,45.7l-6-3.5l-3-1.7
				L33.1,40l-4.5-2.6l-3.7-2.2l-3.1-1.8l-0.9-0.5l22-12.8l7.2,4.2l4.4-2.6L42.9,15L12,32.9l12.2,7l4.5,2.6l0.9,0.5l3.1,1.8l10.4,6
				l10.3-6l3.1-1.8l0.9-0.5l4.4-2.6L74,32.8L62.3,26.2z"/>
		</g>
	</g>
</g>
<path class="st1" d="M101.2,63c-1.8,0-3.6-0.3-5.3-0.8s-3.2-1.3-4.6-2.3s-2.6-2.3-3.7-3.8c-1-1.5-1.9-3.3-2.5-5.3l7.6-3
	c0.6,2.2,1.5,4,2.9,5.4s3.2,2.1,5.5,2.1c0.8,0,1.6-0.1,2.4-0.3s1.5-0.6,2.1-1s1.1-1,1.5-1.6s0.5-1.4,0.5-2.2s-0.1-1.5-0.4-2.2
	s-0.8-1.2-1.4-1.8s-1.5-1.1-2.6-1.6c-1-0.5-2.3-1.1-3.9-1.6l-2.6-1c-1.2-0.4-2.3-0.9-3.5-1.6C92,39.7,91,38.9,90,37.9
	s-1.8-2.1-2.4-3.4c-0.6-1.3-0.9-2.8-0.9-4.4c0-1.7,0.3-3.2,1-4.7c0.7-1.5,1.6-2.8,2.8-3.8c1.2-1.1,2.7-2,4.4-2.6
	c1.7-0.6,3.6-1,5.7-1c2.2,0,4,0.3,5.6,0.9s2.9,1.3,4,2.2c1.1,0.9,2,1.9,2.7,2.9s1.2,2.1,1.5,3.1l-7.1,3c-0.4-1.2-1.1-2.3-2.2-3.2
	c-1-1-2.5-1.4-4.3-1.4s-3.2,0.4-4.4,1.3c-1.2,0.8-1.7,1.9-1.7,3.2c0,1.3,0.6,2.4,1.7,3.3s2.9,1.7,5.3,2.6l2.7,0.9
	c1.7,0.6,3.3,1.3,4.7,2.1c1.4,0.8,2.7,1.7,3.7,2.8s1.8,2.3,2.3,3.7c0.6,1.4,0.8,2.9,0.8,4.7c0,2.2-0.5,4.2-1.4,5.8s-2,2.9-3.4,4
	c-1.4,1-3,1.8-4.7,2.3C104.6,62.7,102.8,63,101.2,63z M139.7,58.9h-0.5c-0.9,1.1-2,2.1-3.4,2.9c-1.3,0.8-2.9,1.2-5,1.2
	c-1.5,0-3-0.3-4.3-0.8s-2.5-1.2-3.5-2s-1.8-1.9-2.3-3.2c-0.6-1.2-0.8-2.6-0.8-4.1s0.3-2.9,0.9-4.1c0.6-1.2,1.4-2.3,2.5-3.2
	s2.3-1.5,3.8-2c1.5-0.5,3.1-0.7,4.8-0.7c1.9,0,3.5,0.2,4.7,0.5s2.3,0.6,3.1,0.9v-0.9c0-1.6-0.6-2.8-1.9-3.8c-1.2-1-2.8-1.6-4.6-1.6
	c-2.7,0-5,1.1-6.9,3.4l-5.7-3.9c3.1-3.9,7.4-5.9,12.8-5.9c4.6,0,8,1.1,10.4,3.2s3.6,5.3,3.6,9.5V62h-7.7V58.9z M139.7,50.1
	c-0.9-0.4-1.9-0.8-2.9-1c-1-0.3-2-0.4-3.2-0.4c-1.9,0-3.3,0.4-4.4,1.3c-1,0.8-1.5,1.8-1.5,3s0.5,2.2,1.4,2.9c1,0.7,2.1,1.1,3.4,1.1
	c1,0,2-0.2,2.9-0.5c0.9-0.4,1.6-0.9,2.2-1.5c0.6-0.6,1.1-1.4,1.4-2.2C139.5,51.8,139.7,50.9,139.7,50.1z M156.3,39.3h-5.2v-6.7h5.2
	v-9h7.9v9h7.2v6.7h-7.2v11.4c0,0.7,0.1,1.3,0.2,1.9c0.2,0.6,0.4,1,0.8,1.4c0.6,0.6,1.4,1,2.4,1c0.7,0,1.2-0.1,1.6-0.2
	c0.4-0.2,0.8-0.4,1.1-0.6l2.2,6.9c-0.9,0.4-1.9,0.8-3,1c-1,0.2-2.2,0.4-3.5,0.4c-1.5,0-2.8-0.2-4-0.7s-2.1-1.1-2.9-1.9
	c-1.9-1.8-2.8-4.4-2.8-7.7V39.3z M189.4,63c-1.9,0-3.6-0.2-5.2-0.7c-1.5-0.5-2.8-1.1-3.9-1.9c-1.1-0.8-2-1.7-2.8-2.7
	s-1.3-2.1-1.7-3.1l7-3c0.7,1.5,1.6,2.7,2.7,3.4c1.2,0.7,2.4,1.1,3.8,1.1c1.4,0,2.6-0.3,3.4-0.8s1.3-1.1,1.3-1.9
	c0-0.8-0.4-1.4-1.1-1.9c-0.7-0.5-1.9-1-3.6-1.4l-4.1-0.9c-0.9-0.2-1.9-0.5-2.9-1c-1-0.4-1.8-1-2.6-1.7s-1.5-1.5-2-2.5
	s-0.8-2.1-0.8-3.4c0-1.4,0.3-2.7,0.9-3.8c0.6-1.1,1.5-2.1,2.6-2.8c1.1-0.8,2.3-1.4,3.8-1.8c1.5-0.4,3.1-0.7,4.7-0.7
	c2.8,0,5.3,0.6,7.5,1.7c2.2,1.1,3.8,2.8,4.9,5.2l-6.8,2.8c-0.6-1.2-1.4-2-2.5-2.5s-2.2-0.8-3.2-0.8c-1.1,0-2.1,0.2-2.9,0.7
	c-0.8,0.4-1.3,1-1.3,1.7s0.3,1.2,1,1.6c0.7,0.4,1.7,0.8,2.9,1.1l4.5,1.1c3,0.7,5.2,1.9,6.7,3.5s2.2,3.4,2.2,5.6
	c0,1.3-0.3,2.5-0.9,3.7c-0.6,1.2-1.5,2.2-2.6,3.1c-1.1,0.9-2.4,1.6-4,2.1C193,62.7,191.3,63,189.4,63z M227.6,62V26.7h-12V19h32.1
	v7.7h-12V62H227.6z M275.6,54.9c-1.4,2.4-3.2,4.3-5.5,5.8s-5.1,2.2-8.4,2.2c-2.2,0-4.3-0.4-6.2-1.1c-1.9-0.8-3.5-1.9-4.9-3.3
	c-1.4-1.4-2.5-3-3.3-4.9s-1.1-4-1.1-6.3c0-2.1,0.4-4.1,1.1-6c0.8-1.9,1.8-3.6,3.2-5s3-2.6,4.8-3.4c1.9-0.8,3.9-1.3,6.2-1.3
	c2.4,0,4.5,0.4,6.3,1.2s3.4,1.8,4.6,3.2s2.2,3,2.8,4.9c0.6,1.9,1,3.9,1,6.1c0,0.3,0,0.5,0,0.7s-0.1,0.5-0.1,0.7s-0.1,0.4-0.1,0.7
	h-22.1c0.2,1.2,0.5,2.2,1,3.1c0.5,0.8,1.1,1.6,1.9,2.2c0.8,0.6,1.6,1,2.5,1.3c0.9,0.2,1.8,0.4,2.7,0.4c1.8,0,3.3-0.4,4.4-1.2
	c1.2-0.8,2.1-1.9,2.8-3.1L275.6,54.9z M268.4,43.5c0-0.5-0.2-1.1-0.5-1.7c-0.3-0.6-0.7-1.2-1.3-1.8c-0.6-0.6-1.3-1-2.2-1.4
	c-0.8-0.4-1.9-0.5-3.1-0.5c-1.7,0-3.2,0.5-4.4,1.4c-1.3,1-2.2,2.3-2.7,4H268.4z M281.1,32.6h7.4v4.1h0.5c0.4-0.7,0.8-1.4,1.4-2
	s1.3-1.1,2-1.6c0.8-0.4,1.6-0.8,2.4-1c0.9-0.2,1.7-0.4,2.6-0.4c1,0,1.9,0.1,2.6,0.3c0.8,0.2,1.4,0.5,1.9,0.8l-2.1,7.1
	c-0.5-0.2-1-0.4-1.6-0.5c-0.6-0.2-1.3-0.2-2.1-0.2c-1.1,0-2.1,0.2-2.9,0.7c-0.9,0.4-1.6,1-2.3,1.7c-0.6,0.8-1.1,1.7-1.4,2.7
	s-0.5,2.1-0.5,3.3V62h-7.9V32.6z M305.5,32.6h7.4v3.8h0.5c0.9-1.4,2.2-2.6,3.7-3.5c1.6-0.9,3.4-1.3,5.3-1.3c2.2,0,4.1,0.5,5.6,1.6
	c1.5,1,2.6,2.3,3.2,3.8c0.9-1.5,2.2-2.7,3.9-3.8c1.7-1.1,3.7-1.6,6.1-1.6c1.8,0,3.4,0.3,4.7,0.9c1.3,0.6,2.4,1.4,3.2,2.4
	c0.9,1,1.5,2.3,2,3.8c0.4,1.4,0.7,3,0.7,4.7V62h-7.9V44.9c0-4-1.6-6-4.9-6c-1,0-2,0.2-2.8,0.7c-0.8,0.4-1.5,1.1-2,1.9
	c-0.5,0.8-0.9,1.7-1.3,2.8c-0.3,1.1-0.4,2.2-0.4,3.5V62h-7.9V44.9c0-4-1.7-6-5.2-6c-1,0-1.9,0.2-2.6,0.7c-0.8,0.4-1.4,1.1-1.9,1.9
	c-0.5,0.8-0.9,1.7-1.2,2.8c-0.3,1.1-0.4,2.2-0.4,3.5V62h-7.9L305.5,32.6L305.5,32.6z M362.7,28.3c-0.7,0-1.3-0.1-2-0.4
	c-0.6-0.3-1.1-0.6-1.6-1.1c-0.4-0.5-0.8-1-1.1-1.6c-0.2-0.6-0.4-1.3-0.4-2s0.1-1.4,0.4-2s0.6-1.1,1.1-1.6s1-0.8,1.6-1.1
	c0.6-0.3,1.3-0.4,2-0.4c1.4,0,2.6,0.5,3.6,1.5s1.5,2.1,1.5,3.5s-0.5,2.6-1.5,3.6C365.3,27.9,364.1,28.3,362.7,28.3z M358.8,62V32.6
	h7.9V62H358.8z M381.2,36.4h0.5c0.9-1.5,2.2-2.6,3.7-3.5c1.6-0.9,3.3-1.3,5.3-1.3c1.8,0,3.5,0.3,4.9,0.9c1.4,0.6,2.5,1.5,3.4,2.6
	s1.6,2.4,2,4c0.5,1.5,0.7,3.2,0.7,5.1V62h-7.9V45.1c0-2.1-0.5-3.7-1.4-4.7s-2.3-1.6-4.1-1.6c-1.1,0-2,0.2-2.9,0.7
	c-0.8,0.4-1.5,1.1-2.1,1.9c-0.6,0.8-1,1.7-1.3,2.8c-0.3,1-0.4,2.2-0.4,3.4V62h-7.9V32.6h7.4L381.2,36.4L381.2,36.4z M426.1,58.9
	h-0.5c-0.9,1.1-2,2.1-3.4,2.9c-1.3,0.8-2.9,1.2-5,1.2c-1.5,0-3-0.3-4.3-0.8s-2.5-1.2-3.5-2s-1.8-1.9-2.3-3.2
	c-0.6-1.2-0.8-2.6-0.8-4.1s0.3-2.9,0.9-4.1c0.6-1.2,1.4-2.3,2.5-3.2s2.3-1.5,3.8-2s3.1-0.7,4.8-0.7c1.9,0,3.5,0.2,4.7,0.5
	s2.3,0.6,3.1,0.9v-0.9c0-1.6-0.6-2.8-1.9-3.8c-1.2-1-2.8-1.6-4.6-1.6c-2.7,0-5,1.1-6.9,3.4l-5.7-3.9c3.1-3.9,7.4-5.9,12.8-5.9
	c4.6,0,8,1.1,10.4,3.2s3.6,5.3,3.6,9.5V62h-7.7V58.9z M426.1,50.1c-0.9-0.4-1.9-0.8-2.9-1c-1-0.3-2-0.4-3.2-0.4
	c-1.9,0-3.3,0.4-4.4,1.3c-1,0.8-1.5,1.8-1.5,3s0.5,2.2,1.4,2.9c1,0.7,2.1,1.1,3.4,1.1c1,0,2-0.2,2.9-0.5c0.9-0.4,1.6-0.9,2.2-1.5
	s1.1-1.4,1.4-2.2C425.9,51.8,426.1,50.9,426.1,50.1z M440.1,62V19h7.9v43H440.1z"/>
<div  id="screen-dimmer-overlay" style="position: fixed;top: 0;left: 0;width: 100%;height: 100%;z-index: 9999;pointer-events: none;mix-blend-mode: multiply;transition: opacity 0.1s ease 0s;opacity:0.78;display:none;background: #525252;" xmlns="">
	</div>
</svg>
