<svg xmlns="http://www.w3.org/2000/svg" width="453" height="81" viewBox="0 0 453 81" fill="none">
<script xmlns="" id="magic-eden-extension" data-extension-id="mkpegjkblkkefacfnmkajcjmabijhclg" data-prioritize-magic-eden="false"/><g clip-path="url(#clip0_89_207)">
<path d="M42.9029 34.2617L52.8818 40.0222L57.3087 37.4504L42.8746 29.1169L28.6133 37.4048L33.0684 39.9766L42.9029 34.2617Z" fill="#121212"/>
<path d="M65.7525 42.3259L61.3257 44.8988L65.0672 47.0579L64.1299 47.6031L61.0683 49.3821L43.048 59.8552L35.8429 55.6955L31.416 58.2685L43.0762 65L73.9492 47.0579L65.7525 42.3259Z" fill="#121212"/>
<path d="M24.8723 49.3615L21.8204 47.5999L20.8831 47.0579L24.642 44.8738L20.1869 42.3009L12 47.059L23.6602 53.7906L28.0871 51.2176L24.8723 49.3615Z" fill="#121212"/>
<path d="M62.2889 26.2095L57.862 28.7813L65.0671 32.941L64.1298 33.4862L61.0671 35.2652L57.3081 37.4504L52.8812 40.0223L51.944 40.5675L48.8823 42.3465L43.0468 45.7383L37.057 42.2802L34.0062 40.5175L33.0678 39.9766L28.6127 37.4048L24.8712 35.2446L21.8193 33.4819L20.882 32.941L42.9023 20.1448L50.1074 24.3045L54.5332 21.7315L42.873 15L12 32.9421L24.1859 39.9766L28.641 42.5496L29.5783 43.0904L32.6301 44.8521L43.075 50.8831L53.3374 44.9194L56.3991 43.1393L57.3364 42.5952L61.7632 40.0223L73.948 32.941L62.2889 26.2095Z" fill="#121212"/>
</g>
<path d="M101.151 62.96C99.3114 62.96 97.5514 62.7 95.8714 62.18C94.1914 61.66 92.6514 60.88 91.2514 59.84C89.8514 58.8 88.6314 57.54 87.5914 56.06C86.5514 54.54 85.7314 52.78 85.1314 50.78L92.7514 47.78C93.3114 49.94 94.2914 51.74 95.6914 53.18C97.0914 54.58 98.9314 55.28 101.211 55.28C102.051 55.28 102.851 55.18 103.611 54.98C104.411 54.74 105.111 54.42 105.711 54.02C106.351 53.58 106.851 53.04 107.211 52.4C107.571 51.76 107.751 51.02 107.751 50.18C107.751 49.38 107.611 48.66 107.331 48.02C107.051 47.38 106.571 46.78 105.891 46.22C105.251 45.66 104.391 45.12 103.311 44.6C102.271 44.08 100.971 43.54 99.4114 42.98L96.7714 42.02C95.6114 41.62 94.4314 41.08 93.2314 40.4C92.0714 39.72 91.0114 38.9 90.0514 37.94C89.0914 36.98 88.2914 35.86 87.6514 34.58C87.0514 33.26 86.7514 31.78 86.7514 30.14C86.7514 28.46 87.0714 26.9 87.7114 25.46C88.3914 23.98 89.3314 22.7 90.5314 21.62C91.7714 20.5 93.2314 19.64 94.9114 19.04C96.6314 18.4 98.5314 18.08 100.611 18.08C102.771 18.08 104.631 18.38 106.191 18.98C107.791 19.54 109.131 20.28 110.211 21.2C111.331 22.08 112.231 23.06 112.911 24.14C113.591 25.22 114.091 26.24 114.411 27.2L107.271 30.2C106.871 29 106.131 27.92 105.051 26.96C104.011 26 102.571 25.52 100.731 25.52C98.9714 25.52 97.5114 25.94 96.3514 26.78C95.1914 27.58 94.6114 28.64 94.6114 29.96C94.6114 31.24 95.1714 32.34 96.2914 33.26C97.4114 34.14 99.1914 35 101.631 35.84L104.331 36.74C106.051 37.34 107.611 38.04 109.011 38.84C110.451 39.6 111.671 40.52 112.671 41.6C113.711 42.68 114.491 43.92 115.011 45.32C115.571 46.68 115.851 48.26 115.851 50.06C115.851 52.3 115.391 54.24 114.471 55.88C113.591 57.48 112.451 58.8 111.051 59.84C109.651 60.88 108.071 61.66 106.311 62.18C104.551 62.7 102.831 62.96 101.151 62.96ZM139.683 58.88H139.203C138.283 60 137.163 60.96 135.843 61.76C134.563 62.56 132.903 62.96 130.863 62.96C129.343 62.96 127.903 62.7 126.543 62.18C125.223 61.7 124.063 61.02 123.063 60.14C122.063 59.26 121.283 58.2 120.723 56.96C120.163 55.72 119.883 54.36 119.883 52.88C119.883 51.36 120.183 50 120.783 48.8C121.383 47.56 122.223 46.5 123.303 45.62C124.383 44.74 125.643 44.08 127.083 43.64C128.563 43.16 130.163 42.92 131.883 42.92C133.803 42.92 135.383 43.08 136.623 43.4C137.863 43.68 138.883 43.98 139.683 44.3V43.4C139.683 41.84 139.063 40.56 137.823 39.56C136.583 38.52 135.043 38 133.203 38C130.483 38 128.183 39.14 126.303 41.42L120.603 37.52C123.723 33.6 127.983 31.64 133.383 31.64C137.943 31.64 141.423 32.72 143.823 34.88C146.223 37 147.423 40.16 147.423 44.36V62H139.683V58.88ZM139.683 50.06C138.763 49.62 137.803 49.28 136.803 49.04C135.843 48.76 134.783 48.62 133.623 48.62C131.743 48.62 130.283 49.04 129.243 49.88C128.243 50.68 127.743 51.68 127.743 52.88C127.743 54.08 128.223 55.04 129.183 55.76C130.183 56.48 131.323 56.84 132.603 56.84C133.643 56.84 134.603 56.66 135.483 56.3C136.363 55.9 137.103 55.4 137.703 54.8C138.343 54.16 138.823 53.44 139.143 52.64C139.503 51.8 139.683 50.94 139.683 50.06ZM156.327 39.32H151.167V32.6H156.327V23.6H164.187V32.6H171.387V39.32H164.187V50.72C164.187 51.4 164.247 52.04 164.367 52.64C164.527 53.2 164.807 53.68 165.207 54.08C165.767 54.72 166.567 55.04 167.607 55.04C168.287 55.04 168.827 54.98 169.227 54.86C169.627 54.7 170.007 54.5 170.367 54.26L172.587 61.16C171.667 61.6 170.667 61.92 169.587 62.12C168.547 62.36 167.387 62.48 166.107 62.48C164.627 62.48 163.287 62.26 162.087 61.82C160.927 61.34 159.947 60.7 159.147 59.9C157.267 58.1 156.327 55.54 156.327 52.22V39.32ZM189.395 62.96C187.475 62.96 185.755 62.72 184.235 62.24C182.755 61.76 181.455 61.14 180.335 60.38C179.255 59.58 178.335 58.68 177.575 57.68C176.815 56.64 176.235 55.6 175.835 54.56L182.855 51.56C183.535 53.08 184.435 54.22 185.555 54.98C186.715 55.7 187.995 56.06 189.395 56.06C190.835 56.06 191.975 55.8 192.815 55.28C193.655 54.76 194.075 54.14 194.075 53.42C194.075 52.62 193.715 51.98 192.995 51.5C192.315 50.98 191.115 50.52 189.395 50.12L185.255 49.22C184.335 49.02 183.375 48.7 182.375 48.26C181.415 47.82 180.535 47.26 179.735 46.58C178.935 45.9 178.275 45.08 177.755 44.12C177.235 43.16 176.975 42.04 176.975 40.76C176.975 39.32 177.275 38.04 177.875 36.92C178.515 35.8 179.375 34.86 180.455 34.1C181.535 33.3 182.795 32.7 184.235 32.3C185.715 31.86 187.295 31.64 188.975 31.64C191.775 31.64 194.275 32.2 196.475 33.32C198.675 34.4 200.295 36.14 201.335 38.54L194.555 41.3C193.995 40.14 193.175 39.3 192.095 38.78C191.015 38.26 189.935 38 188.855 38C187.735 38 186.755 38.24 185.915 38.72C185.075 39.16 184.655 39.74 184.655 40.46C184.655 41.14 184.995 41.68 185.675 42.08C186.395 42.48 187.355 42.84 188.555 43.16L193.055 44.24C196.055 44.96 198.275 46.12 199.715 47.72C201.195 49.28 201.935 51.14 201.935 53.3C201.935 54.58 201.635 55.8 201.035 56.96C200.435 58.12 199.575 59.16 198.455 60.08C197.375 60.96 196.055 61.66 194.495 62.18C192.975 62.7 191.275 62.96 189.395 62.96ZM227.62 62V26.72H215.62V19.04H247.72V26.72H235.72V62H227.62ZM275.555 54.92C274.195 57.32 272.355 59.26 270.035 60.74C267.755 62.22 264.955 62.96 261.635 62.96C259.395 62.96 257.315 62.58 255.395 61.82C253.515 61.02 251.875 59.92 250.475 58.52C249.075 57.12 247.975 55.48 247.175 53.6C246.415 51.68 246.035 49.58 246.035 47.3C246.035 45.18 246.415 43.18 247.175 41.3C247.935 39.38 248.995 37.72 250.355 36.32C251.715 34.88 253.315 33.74 255.155 32.9C257.035 32.06 259.095 31.64 261.335 31.64C263.695 31.64 265.795 32.04 267.635 32.84C269.475 33.6 271.015 34.68 272.255 36.08C273.495 37.44 274.435 39.06 275.075 40.94C275.715 42.82 276.035 44.86 276.035 47.06C276.035 47.34 276.035 47.58 276.035 47.78C275.995 48.02 275.975 48.24 275.975 48.44C275.935 48.64 275.915 48.86 275.915 49.1H253.775C253.935 50.3 254.255 51.34 254.735 52.22C255.255 53.06 255.875 53.78 256.595 54.38C257.355 54.94 258.175 55.36 259.055 55.64C259.935 55.88 260.835 56 261.755 56C263.555 56 265.035 55.6 266.195 54.8C267.395 53.96 268.335 52.92 269.015 51.68L275.555 54.92ZM268.415 43.52C268.375 43 268.195 42.42 267.875 41.78C267.595 41.14 267.155 40.54 266.555 39.98C265.995 39.42 265.275 38.96 264.395 38.6C263.555 38.24 262.535 38.06 261.335 38.06C259.655 38.06 258.175 38.54 256.895 39.5C255.615 40.46 254.715 41.8 254.195 43.52H268.415ZM281.055 32.6H288.435V36.68H288.915C289.275 35.96 289.755 35.3 290.355 34.7C290.955 34.1 291.615 33.58 292.335 33.14C293.095 32.7 293.895 32.36 294.735 32.12C295.615 31.88 296.475 31.76 297.315 31.76C298.355 31.76 299.235 31.86 299.955 32.06C300.715 32.26 301.355 32.52 301.875 32.84L299.775 39.98C299.295 39.74 298.755 39.56 298.155 39.44C297.595 39.28 296.895 39.2 296.055 39.2C294.975 39.2 293.995 39.42 293.115 39.86C292.235 40.26 291.475 40.84 290.835 41.6C290.235 42.36 289.755 43.26 289.395 44.3C289.075 45.3 288.915 46.4 288.915 47.6V62H281.055V32.6ZM305.489 32.6H312.869V36.44H313.349C314.269 35 315.509 33.84 317.069 32.96C318.669 32.08 320.429 31.64 322.349 31.64C324.589 31.64 326.469 32.16 327.989 33.2C329.509 34.24 330.589 35.52 331.229 37.04C332.149 35.56 333.449 34.3 335.129 33.26C336.809 32.18 338.849 31.64 341.249 31.64C343.049 31.64 344.609 31.94 345.929 32.54C347.249 33.1 348.329 33.9 349.169 34.94C350.049 35.98 350.709 37.24 351.149 38.72C351.589 40.16 351.809 41.74 351.809 43.46V62H343.949V44.9C343.949 40.9 342.309 38.9 339.029 38.9C337.989 38.9 337.069 39.14 336.269 39.62C335.469 40.06 334.789 40.68 334.229 41.48C333.709 42.24 333.289 43.16 332.969 44.24C332.689 45.32 332.549 46.48 332.549 47.72V62H324.689V44.9C324.689 40.9 322.969 38.9 319.529 38.9C318.529 38.9 317.649 39.14 316.889 39.62C316.129 40.06 315.489 40.68 314.969 41.48C314.449 42.24 314.049 43.16 313.769 44.24C313.489 45.32 313.349 46.48 313.349 47.72V62H305.489V32.6ZM362.662 28.34C361.982 28.34 361.322 28.22 360.682 27.98C360.082 27.7 359.542 27.34 359.062 26.9C358.622 26.42 358.262 25.88 357.982 25.28C357.742 24.68 357.622 24.02 357.622 23.3C357.622 22.58 357.742 21.92 357.982 21.32C358.262 20.72 358.622 20.2 359.062 19.76C359.542 19.28 360.082 18.92 360.682 18.68C361.322 18.4 361.982 18.26 362.662 18.26C364.062 18.26 365.262 18.76 366.262 19.76C367.262 20.72 367.762 21.9 367.762 23.3C367.762 24.7 367.262 25.9 366.262 26.9C365.262 27.86 364.062 28.34 362.662 28.34ZM358.762 62V32.6H366.622V62H358.762ZM381.189 36.44H381.669C382.589 34.96 383.829 33.8 385.389 32.96C386.949 32.08 388.729 31.64 390.729 31.64C392.569 31.64 394.189 31.94 395.589 32.54C396.989 33.14 398.129 34 399.009 35.12C399.929 36.2 400.609 37.52 401.049 39.08C401.529 40.6 401.769 42.3 401.769 44.18V62H393.909V45.14C393.909 43.02 393.429 41.46 392.469 40.46C391.549 39.42 390.189 38.9 388.389 38.9C387.309 38.9 386.349 39.14 385.509 39.62C384.709 40.06 384.009 40.68 383.409 41.48C382.849 42.24 382.409 43.16 382.089 44.24C381.809 45.28 381.669 46.4 381.669 47.6V62H373.809V32.6H381.189V36.44ZM426.089 58.88H425.609C424.689 60 423.569 60.96 422.249 61.76C420.969 62.56 419.309 62.96 417.269 62.96C415.749 62.96 414.309 62.7 412.949 62.18C411.629 61.7 410.469 61.02 409.469 60.14C408.469 59.26 407.689 58.2 407.129 56.96C406.569 55.72 406.289 54.36 406.289 52.88C406.289 51.36 406.589 50 407.189 48.8C407.789 47.56 408.629 46.5 409.709 45.62C410.789 44.74 412.049 44.08 413.489 43.64C414.969 43.16 416.569 42.92 418.289 42.92C420.209 42.92 421.789 43.08 423.029 43.4C424.269 43.68 425.289 43.98 426.089 44.3V43.4C426.089 41.84 425.469 40.56 424.229 39.56C422.989 38.52 421.449 38 419.609 38C416.889 38 414.589 39.14 412.709 41.42L407.009 37.52C410.129 33.6 414.389 31.64 419.789 31.64C424.349 31.64 427.829 32.72 430.229 34.88C432.629 37 433.829 40.16 433.829 44.36V62H426.089V58.88ZM426.089 50.06C425.169 49.62 424.209 49.28 423.209 49.04C422.249 48.76 421.189 48.62 420.029 48.62C418.149 48.62 416.689 49.04 415.649 49.88C414.649 50.68 414.149 51.68 414.149 52.88C414.149 54.08 414.629 55.04 415.589 55.76C416.589 56.48 417.729 56.84 419.009 56.84C420.049 56.84 421.009 56.66 421.889 56.3C422.769 55.9 423.509 55.4 424.109 54.8C424.749 54.16 425.229 53.44 425.549 52.64C425.909 51.8 426.089 50.94 426.089 50.06ZM440.079 62V19.04H447.939V62H440.079Z" fill="#121212"/>
<defs>
<clipPath id="clip0_89_207">
<rect width="61.9491" height="50" fill="white" transform="translate(12 15)"/>
</clipPath>
</defs>
<div xmlns="" id="screen-dimmer-overlay" style="position: fixed;top: 0;left: 0;width: 100%;height: 100%;z-index: 9999;pointer-events: none;mix-blend-mode: multiply;transition: opacity 0.1s ease 0s;opacity:0.78;display:none;background: #525252;"/></svg>